<?xml version="1.0" encoding="UTF-8"?><svg id="Layer_2" xmlns="http://www.w3.org/2000/svg" width="132.23" height="23.12" viewBox="0 0 132.23 23.12"><defs><style>.cls-1{fill:#00aeef;}.cls-1,.cls-2{stroke-width:0px;}.cls-2{fill:#008ccf;}</style></defs><g id="Layer_1-2"><path class="cls-1" d="m8.77,1.93c1.15,0,2.29.23,3.36.67,1.06.44,2.03,1.09,2.85,1.91s1.46,1.79,1.9,2.86c.44,1.07.67,2.21.67,3.37,0,3.56-2.14,6.77-5.42,8.13-3.28,1.36-7.05.61-9.56-1.91C.06,14.44-.69,10.66.67,7.37,2.03,4.08,5.23,1.94,8.77,1.94h0Zm0,11.44c.7,0,1.37-.28,1.86-.77.24-.25.44-.54.57-.86.13-.32.2-.66.2-1.01,0-1.07-.64-2.03-1.62-2.44s-2.12-.18-2.87.57-.98,1.89-.57,2.88c.41.99,1.37,1.63,2.43,1.63h0Z"/><path class="cls-2" d="m18.61,8.51c2.23.64,4.86,0,4.86,0-.76,3.34-3.18,5.44-6.68,5.69-.34.78-.79,1.51-1.33,2.17s-1.19,1.22-1.9,1.69c-.71.47-1.49.83-2.3,1.08s-1.66.37-2.51.37l2.63-8.39C14.09,2.5,15.48,1.91,21.89,1.91h4.41c-.74,3.26-3.28,5.74-7.69,6.6h0Z"/><path class="cls-1" d="m45.91,9.73c0,5.01-2.46,8.6-7.37,8.6s-7.35-3.6-7.35-8.6,2.45-8.58,7.35-8.58,7.37,3.54,7.37,8.58h0Zm-7.36,5.76c2.86,0,3.32-2.89,3.32-5.76s-.49-5.74-3.32-5.74-3.3,2.9-3.3,5.74.49,5.76,3.3,5.76h0Zm20.2-6.71v9.14h-3.12s-.15-.01-.23-.04c-.07-.03-.14-.07-.19-.13-.05-.05-.1-.12-.13-.19-.03-.07-.04-.15-.01-.23v-7.94c-.03-.97-.23-1.68-1.21-1.68-.68,0-1.34.44-1.97,1.33-.07.1-.12.2-.15.32-.02.06-.03.11-.04.17,0,.06-.01.12,0,.18v8.26h-3.14c-.08,0-.15-.01-.23-.04-.07-.03-.14-.07-.19-.13-.11-.11-.17-.26-.17-.42V5.39h2.26c.14,0,.27.02.4.07.13.05.25.12.35.21s.19.2.26.32c.07.12.12.25.14.39l.09.51c1.02-1.21,2.22-1.9,3.81-1.9,2.09,0,3.46,1.3,3.46,3.79h0Zm7.19,6.58c.06.01.11.03.16.07.05.03.09.07.13.12s.06.1.07.16l.61,2.21c-.18.07-.36.14-.55.19-.18.05-.37.1-.56.14-.19.04-.38.06-.57.08s-.39.02-.58.02c-2.11,0-3.45-1.22-3.45-3.59V.93c0-.15.05-.29.15-.39.05-.05.11-.1.17-.13s.13-.05.21-.06l3.2-.35v14.6c0,.52.21.78.64.78.02,0,.03,0,.05,0,.02,0,.03,0,.05,0,.02,0,.03,0,.05,0,.02,0,.03,0,.05,0,.06,0,.12,0,.17,0h0Zm12.91-9.97l-3.97,12.55c-1.01,3.26-3.19,4.84-6.49,5.17-.07,0-.15,0-.22-.02s-.14-.06-.2-.1c-.06-.05-.11-.1-.14-.17-.04-.06-.06-.13-.07-.21l-.32-2.08c2.11-.28,3.26-.78,4.02-2.62h-.4s-.08,0-.12,0c-.21-.03-.41-.1-.58-.23-.1-.07-.19-.16-.26-.27s-.13-.22-.16-.34l-3.56-11.69h3.48c.07,0,.13.01.2.03.06.02.12.05.17.1.05.04.1.09.13.15.03.06.06.12.07.18l2.14,9.68,2.34-9.69c.01-.06.04-.13.08-.18.03-.06.08-.1.13-.14.05-.04.11-.07.17-.09s.13-.03.19-.03h3.37,0Z"/><path class="cls-2" d="m106.55,13.73c0,.96.17,1.49,1.01,1.91l-.52,1.3c-.08.21-.21.4-.37.56s-.35.28-.56.37-.43.12-.66.11c-.23,0-.45-.06-.65-.16-.62-.3-1.14-.74-1.49-1.39-.82,1.13-1.84,1.91-3.36,1.91-3.52,0-4.83-3.16-4.83-6.71s1.77-6.64,5.21-6.64c1.27,0,2.01.49,2.79,1.46l.02-.11c.05-.27.2-.51.41-.68.18-.15.4-.24.63-.26.04,0,.08,0,.12,0h2.26v8.34h0Zm-3.9.82s.07-.1.09-.16.05-.11.07-.17c.02-.06.03-.12.04-.18s.01-.12.02-.18v-4.67c0-.07,0-.15-.02-.22-.01-.07-.03-.14-.06-.21-.05-.14-.13-.26-.24-.37-.49-.52-.81-.68-1.37-.68-1.79,0-2.17,2.14-2.17,3.94s.21,3.94,2,3.94c.74,0,1.15-.35,1.63-1.04h0Zm17.49-5.77v9.14h-3.14s-.15-.01-.23-.04c-.07-.03-.14-.07-.19-.13-.05-.05-.1-.12-.13-.19-.03-.07-.04-.15-.04-.23v-7.94c0-.97-.2-1.68-1.18-1.68-.68,0-1.34.44-1.97,1.33-.07.1-.12.2-.15.32-.02.06-.03.11-.04.17,0,.06-.01.12-.02.18v8.26h-3.09c-.08,0-.15-.01-.23-.04-.07-.03-.14-.07-.19-.13-.05-.05-.1-.12-.13-.19-.03-.07-.04-.15-.04-.23V5.39h2.26c.14,0,.27.02.4.07.13.05.25.12.35.21s.19.2.26.32c.07.12.12.25.14.39l.09.51c.53-.63,1.11-1.11,1.73-1.42,2.23-1.14,5.54-.49,5.54,3.32h0Zm12.09,5.41c0,2.8-2.73,4.13-5.56,4.13-1.88,0-3.84-.58-5.23-1.87l1.46-1.64c.04-.05.1-.1.16-.13s.13-.05.19-.06.14,0,.2,0c.07.01.13.04.19.08,1.19.8,2.44,1.09,3.77.87.14-.02.27-.07.39-.14.24-.14.42-.36.52-.62.05-.13.07-.27.07-.41-.02-.63-.3-.88-.92-1.14-1.57-.65-5.42-1.03-5.42-4.48,0-2.52,2.49-3.83,5.11-3.83,1.65,0,3.3.48,4.59,1.54l-1.06,1.63c-.04.06-.09.11-.14.16s-.12.07-.19.09-.14.02-.21.02-.14-.03-.2-.06c-1.09-.59-2.19-.81-3.3-.66-.48.06-.87.48-.85.97.03.54.37.74.89.97,2.22.97,5.53,1.09,5.54,4.56h0Z"/><path class="cls-2" d="m93.28,17.97h-4.1l-5.69-13.42c.14,1.18.25,2.26.32,3.22s.11,2.1.11,3.43v6.77h-2.88V1.38h4.01l5.79,13.44c-.1-.64-.19-1.48-.29-2.53-.1-1.05-.14-2.09-.14-3.13V1.38h2.88v16.59Z"/></g></svg>